<?xml version="1.0" encoding="UTF-8"?>
<svg width="16px" height="16px" viewBox="0 0 16 16" version="1.1" xmlns="http://www.w3.org/2000/svg" xmlns:xlink="http://www.w3.org/1999/xlink">
    <title>minsheng</title>
    <g id="页面-1" stroke="none" stroke-width="1" fill="none" fill-rule="evenodd">
        <g id="基础信息" transform="translate(-44.000000, -235.000000)" fill-rule="nonzero">
            <g id="编组-2" transform="translate(20.000000, 95.000000)">
                <g id="编组-12备份-2" transform="translate(0.000000, 128.000000)">
                    <g id="minsheng" transform="translate(24.000000, 12.000000)">
                        <rect id="矩形" fill="#000000" opacity="0" x="0" y="0" width="16" height="16"></rect>
                        <path d="M13.7581792,2.79393544 L8.246482,1.03195305 C8.1799783,1.01065102 8.09076602,1 8.00155373,1 C7.91234144,1 7.82312916,1.01065102 7.75662546,1.03195305 L2.24492827,2.79393544 C2.11029883,2.83653951 2,2.98261059 2,3.11650908 L2,10.4565808 C2,10.5904793 2.09245637,10.7669818 2.20437724,10.8506684 L7.79555445,14.9376155 C7.85232591,14.978698 7.92531778,15 7.99993169,15 C8.0745456,15 8.14915951,14.978698 8.20430892,14.9376155 L13.7954861,10.8506684 C13.907407,10.7685034 13.9999332,10.5920009 13.9999332,10.4565808 L13.9999332,3.11650908 C14.0031075,2.98261059 13.8928086,2.83806108 13.7581792,2.79393544 Z M12.8352375,10.1644386 L8.00155373,13.6975329 L3.16786992,10.1644386 L3.16786992,3.65818933 L8.00155373,2.11227041 L12.8352375,3.65818933 L12.8352375,10.1644386 Z" id="形状" fill="#333333"></path>
                        <path d="M6.315625,7.0828125 C6.26875,7.01875 6.19375,6.9796875 6.1125,6.9796875 L5.25,6.9796875 C5.1484375,6.9796875 5.0890625,7.0953125 5.1484375,7.178125 L7.1234375,9.896875 C7.2234375,10.034375 7.4296875,10.034375 7.5296875,9.896875 L10.8515625,5.3234375 C10.9109375,5.240625 10.8515625,5.125 10.75,5.125 L9.8875,5.125 C9.8078125,5.125 9.73125,5.1640625 9.684375,5.228125 L7.3265625,8.475 L6.315625,7.0828125 Z" id="路径" fill="#1B69FD"></path>
                    </g>
                </g>
            </g>
        </g>
    </g>
</svg>