<?xml version="1.0" encoding="UTF-8"?>
<svg width="16px" height="16px" viewBox="0 0 16 16" version="1.1" xmlns="http://www.w3.org/2000/svg" xmlns:xlink="http://www.w3.org/1999/xlink">
    <title>minzhengweijian</title>
    <g id="页面-1" stroke="none" stroke-width="1" fill="none" fill-rule="evenodd">
        <g id="基础信息" transform="translate(-44.000000, -291.000000)" fill-rule="nonzero">
            <g id="编组-2" transform="translate(20.000000, 95.000000)">
                <g id="编组-16" transform="translate(0.000000, 184.000000)">
                    <g id="minzhengweijian" transform="translate(24.000000, 12.000000)">
                        <rect id="矩形" fill="#000000" opacity="0" x="0" y="0" width="16" height="16"></rect>
                        <path d="M4.625,3.90625 C4.55625,3.90625 4.5,3.9625 4.5,4.03125 L4.5,4.78125 C4.5,4.85 4.55625,4.90625 4.625,4.90625 L10.625,4.90625 C10.69375,4.90625 10.75,4.85 10.75,4.78125 L10.75,4.03125 C10.75,3.9625 10.69375,3.90625 10.625,3.90625 L4.625,3.90625 Z M7.5,6.15625 L4.625,6.15625 C4.55625,6.15625 4.5,6.2125 4.5,6.28125 L4.5,7.03125 C4.5,7.1 4.55625,7.15625 4.625,7.15625 L7.5,7.15625 C7.56875,7.15625 7.625,7.1 7.625,7.03125 L7.625,6.28125 C7.625,6.2125 7.56875,6.15625 7.5,6.15625 Z M6.75,13.3125 L3.25,13.3125 L3.25,2.3125 L12,2.3125 L12,7.3125 C12,7.38125 12.05625,7.4375 12.125,7.4375 L13,7.4375 C13.06875,7.4375 13.125,7.38125 13.125,7.3125 L13.125,1.6875 C13.125,1.4109375 12.9015625,1.1875 12.625,1.1875 L2.625,1.1875 C2.3484375,1.1875 2.125,1.4109375 2.125,1.6875 L2.125,13.9375 C2.125,14.2140625 2.3484375,14.4375 2.625,14.4375 L6.75,14.4375 C6.81875,14.4375 6.875,14.38125 6.875,14.3125 L6.875,13.4375 C6.875,13.36875 6.81875,13.3125 6.75,13.3125 Z" id="形状" fill="#333333"></path>
                        <path d="M10.875,7.9375 C11.8421875,7.9375 12.625,8.7203125 12.625,9.6875 C12.625,10.48125 12.0984375,11.15 11.375,11.365625 L11.375,11.9375 L13.625,11.9375 C13.7625,11.9375 13.875,12.05 13.875,12.1875 L13.875,14.5625 C13.875,14.7 13.7625,14.8125 13.625,14.8125 L8.125,14.8125 C7.9875,14.8125 7.875,14.7 7.875,14.5625 L7.875,12.1875 C7.875,12.05 7.9875,11.9375 8.125,11.9375 L10.375,11.9375 L10.375,11.365625 C9.6515625,11.15 9.125,10.4796875 9.125,9.6875 C9.125,8.7203125 9.9078125,7.9375 10.875,7.9375 Z M12.90625,12.90625 L8.84375,12.90625 L8.84375,13.84375 L12.90625,13.84375 L12.90625,12.90625 Z M10.875,8.90625 C10.44375,8.90625 10.09375,9.25625 10.09375,9.6875 C10.09375,10.11875 10.44375,10.46875 10.875,10.46875 C11.30625,10.46875 11.65625,10.11875 11.65625,9.6875 C11.65625,9.25625 11.30625,8.90625 10.875,8.90625 Z" id="形状结合" fill="#1B69FD"></path>
                    </g>
                </g>
            </g>
        </g>
    </g>
</svg>