<?xml version="1.0" encoding="UTF-8"?>
<svg width="80px" height="80px" viewBox="0 0 80 80" version="1.1" xmlns="http://www.w3.org/2000/svg" xmlns:xlink="http://www.w3.org/1999/xlink">
    <title>morenzhaopian</title>
    <defs>
        <linearGradient x1="50%" y1="0%" x2="50%" y2="123.42273%" id="linearGradient-1">
            <stop stop-color="#F7F7F9" offset="0%"></stop>
            <stop stop-color="#D5D8E8" offset="100%"></stop>
        </linearGradient>
    </defs>
    <g id="页面-1" stroke="none" stroke-width="1" fill="none" fill-rule="evenodd">
        <g id="基础信息" transform="translate(-332.000000, -180.000000)" fill-rule="nonzero">
            <g id="编组-13备份" transform="translate(286.000000, 111.000000)">
                <g id="morenzhaopian" transform="translate(46.000000, 69.000000)">
                    <rect id="矩形" fill="url(#linearGradient-1)" opacity="0.78" x="0" y="0" width="80" height="80" rx="2"></rect>
                    <path d="M31.2458713,31.8304615 C31.2458713,35.6624627 33.2092349,38.979674 36.0632028,40.603136 C37.2469549,41.2767246 38.5795848,41.6651719 39.9934626,41.6651719 C41.3575268,41.6651719 42.6440291,41.3019112 43.7968589,40.6744469 C46.7179446,39.0813419 48.7446888,35.7232792 48.7446888,31.8309734 C48.7446888,26.4117543 44.819651,22 39.9934626,22 C35.1703971,22 31.2458713,26.4112423 31.2458713,31.8304615 Z M40.0857176,57.8888889 C46.7352489,57.8888889 52.6676276,54.8306596 56.554934,50.0452014 C56.0957066,46.270382 52.4170235,43.0569376 47.2107566,41.4533893 C45.2448332,43.2225959 42.7326492,44.2867307 39.9929506,44.2867307 C37.1924313,44.2867307 34.6288466,43.1649534 32.64352,41.3197262 C27.5793217,42.7649878 23.8697163,45.7131024 23,49.2457821 C26.8579199,54.4862889 33.0760231,57.8884282 40.0857176,57.8884282 L40.0857176,57.8888889 Z" id="形状" fill="#FFFFFF"></path>
                </g>
            </g>
        </g>
    </g>
</svg>