<?xml version="1.0" encoding="UTF-8"?>
<svg width="16px" height="16px" viewBox="0 0 16 16" version="1.1" xmlns="http://www.w3.org/2000/svg" xmlns:xlink="http://www.w3.org/1999/xlink">
    <title>xiugai</title>
    <g id="页面-1" stroke="none" stroke-width="1" fill="none" fill-rule="evenodd">
        <g id="基础信息_警局管理" transform="translate(-121.000000, -316.000000)" fill="#000000" fill-rule="nonzero">
            <g id="card备份-3" transform="translate(45.000000, 168.000000)">
                <g id="操作" transform="translate(0.000000, 133.000000)">
                    <g id="xiugai" transform="translate(76.000000, 15.000000)">
                        <rect id="矩形" opacity="0" x="0" y="0" width="16" height="16"></rect>
                        <path d="M2.84570313,12.5 C2.88476563,12.5 2.92382813,12.4960938 2.96289063,12.4902344 L6.24804688,11.9140625 C6.28710938,11.90625 6.32421875,11.8886719 6.3515625,11.859375 L14.6308594,3.58007813 C14.7070313,3.50390625 14.7070313,3.38085938 14.6308594,3.3046875 L11.3847656,0.056640625 C11.3476563,0.01953125 11.2988281,0 11.2460938,0 C11.1933594,0 11.1445312,0.01953125 11.1074219,0.056640625 L2.828125,8.3359375 C2.79882813,8.36523438 2.78125,8.40039062 2.7734375,8.43945312 L2.19726563,11.7246094 C2.16015625,11.9414062 2.2265625,12.1523437 2.38085938,12.3066406 C2.50976563,12.4316406 2.671875,12.5 2.84570313,12.5 L2.84570313,12.5 Z M4.16210937,9.09375 L11.2460937,2.01171875 L12.6777344,3.44335938 L5.59375,10.5253906 L3.85742187,10.8320313 L4.16210937,9.09375 L4.16210937,9.09375 Z M15,14.140625 L0.625,14.140625 C0.279296875,14.140625 0,14.4199219 0,14.765625 L0,15.46875 C0,15.5546875 0.0703125,15.625 0.15625,15.625 L15.46875,15.625 C15.5546875,15.625 15.625,15.5546875 15.625,15.46875 L15.625,14.765625 C15.625,14.4199219 15.3457031,14.140625 15,14.140625 Z" id="fill" opacity="0.45"></path>
                    </g>
                </g>
            </g>
        </g>
    </g>
</svg>