<?xml version="1.0" encoding="UTF-8"?>
<svg width="16px" height="16px" viewBox="0 0 16 16" version="1.1" xmlns="http://www.w3.org/2000/svg" xmlns:xlink="http://www.w3.org/1999/xlink">
    <title>zhuanqunjiehe</title>
    <g id="页面-1" stroke="none" stroke-width="1" fill="none" fill-rule="evenodd">
        <g id="基础信息" transform="translate(-44.000000, -179.000000)" fill-rule="nonzero">
            <g id="编组-2" transform="translate(20.000000, 95.000000)">
                <g id="编组-12备份" transform="translate(0.000000, 72.000000)">
                    <g id="zhuanqunjiehe" transform="translate(24.000000, 12.000000)">
                        <rect id="矩形" fill="#000000" opacity="0" x="0" y="0" width="16" height="16"></rect>
                        <g id="编组-15" transform="translate(1.000000, 3.000000)">
                            <path d="M5.36723445,5.92473755 C5.35709803,5.85885082 5.29965831,5.81154753 5.23377158,5.81154753 L0.814292416,5.81154753 C0.748405685,5.81154753 0.690965971,5.85885082 0.680829551,5.92473755 L0.00168940335,10.1144579 C0,10.1212155 0,10.1296625 0,10.1364201 C0,10.2107539 0.0608185207,10.2715724 0.135152268,10.2715724 L5.91291173,10.2715724 C5.91966934,10.2715724 5.92811636,10.2715724 5.93487397,10.269883 C6.00920772,10.2580572 6.05820042,10.1887916 6.0463746,10.1144579 L5.36723445,5.92473755 L5.36723445,5.92473755 Z M1.32618163,9.1227781 L1.67588812,6.96034181 L4.37048647,6.96034181 L4.72019296,9.1227781 L1.32618163,9.1227781 Z M13.310809,10.1144579 L12.6316689,5.92473755 C12.6215324,5.85885082 12.5640927,5.81154753 12.498206,5.81154753 L8.07872683,5.81154753 C8.0128401,5.81154753 7.95540038,5.85885082 7.94526396,5.92473755 L7.26612382,10.1144579 C7.26443441,10.1212155 7.26443441,10.1296625 7.26443441,10.1364201 C7.26443441,10.2107539 7.32525293,10.2715724 7.39958668,10.2715724 L13.1773461,10.2715724 C13.1841038,10.2715724 13.1925508,10.2715724 13.1993084,10.269883 C13.2719527,10.2580572 13.3226348,10.1887916 13.310809,10.1144579 L13.310809,10.1144579 Z M8.59061604,9.1227781 L8.94032254,6.96034181 L11.6349209,6.96034181 L11.9846274,9.1227781 L8.59061604,9.1227781 Z" id="形状" fill="#333333"></path>
                            <path d="M8.88288282,0 C8.94876955,0 9.00620927,0.0473032938 9.01634569,0.113190025 L9.69548584,4.30291034 C9.70731166,4.37724408 9.65831896,4.44650962 9.58398521,4.45833545 L9.56202297,4.46002485 L3.78426351,4.46002485 C3.70992976,4.46002485 3.64911124,4.39920633 3.64911124,4.32487258 C3.64911124,4.31811497 3.64911124,4.30966795 3.65080064,4.30291034 L4.32994079,0.113190025 C4.34007721,0.0473032938 4.39751692,0 4.46340366,0 Z M8.01959771,1.14879428 L5.32499936,1.14879428 L4.97360347,3.31123057 L8.3693042,3.31123057 L8.01959771,1.14879428 Z" id="形状结合" fill="#1B69FD"></path>
                        </g>
                    </g>
                </g>
            </g>
        </g>
    </g>
</svg>